<svg xmlns="http://www.w3.org/2000/svg" version="1.1" xmlns:xlink="http://www.w3.org/1999/xlink" xmlns:svgjs="http://svgjs.dev/svgjs" width="1440" height="560" preserveAspectRatio="none" viewBox="0 0 1440 560"><g mask="url(&quot;#SvgjsMask1000&quot;)" fill="none"><rect width="1440" height="560" x="0" y="0" fill="#0e2a47"></rect><path d="M376.74 141.25L421.75 141.25L421.75 196.94L376.74 196.94z" stroke="#d3b714"></path><path d="M120.57 372.6 a41.07 41.07 0 1 0 82.14 0 a41.07 41.07 0 1 0 -82.14 0z" stroke="#e73635"></path><path d="M1158.59 131.04L1181.76 131.04L1181.76 154.21L1158.59 154.21z" fill="#e73635"></path><path d="M1198.78 70.73L1211.76 70.73L1211.76 83.71L1198.78 83.71z" stroke="#d3b714"></path><path d="M822.05 266.46L858.12 266.46L858.12 302.53L822.05 302.53z" fill="#037b0b"></path><path d="M682.5 267.63L716.43 267.63L716.43 281.19L682.5 281.19z" stroke="#037b0b"></path><path d="M871.53 522.34a15.04 15.04 0 1 0 22.12-20.38z" stroke="#e73635"></path><path d="M1222.13 481.97 a52.3 52.3 0 1 0 104.6 0 a52.3 52.3 0 1 0 -104.6 0z" fill="#037b0b"></path><path d="M581.72 228.17a47.18 47.18 0 1 0 76.98-54.56z" fill="#d3b714"></path><path d="M1371.71 350.78 a21.12 21.12 0 1 0 42.24 0 a21.12 21.12 0 1 0 -42.24 0z" fill="#e73635"></path><path d="M166.88 5.7L178.81 5.7L178.81 17.63L166.88 17.63z" fill="#037b0b"></path><path d="M40.33 376.22L86.69 376.22L86.69 426.88L40.33 426.88z" stroke="#d3b714"></path><path d="M527.92 186.02L561.86 186.02L561.86 234.42L527.92 234.42z" stroke="#037b0b"></path><path d="M818.03 298.64a44.76 44.76 0 1 0 77.72 44.42z" stroke="#037b0b"></path><path d="M984.77 404.99a41.96 41.96 0 1 0 40.55-73.47z" stroke="#e73635"></path><path d="M561.43 15.74L596.61 15.74L596.61 50.92L561.43 50.92z" stroke="#037b0b"></path><path d="M313.99 405.42 a50.25 50.25 0 1 0 100.5 0 a50.25 50.25 0 1 0 -100.5 0z" fill="#037b0b"></path><path d="M983.54 553.27L996.82 553.27L996.82 566.55L983.54 566.55z" stroke="#037b0b"></path><path d="M1306.6 340.95L1314.01 340.95L1314.01 348.36L1306.6 348.36z" fill="#037b0b"></path><path d="M1095.86 313.36L1137.58 313.36L1137.58 355.48L1095.86 355.48z" fill="#037b0b"></path><path d="M229.86 266.98L241.36 266.98L241.36 275.5L229.86 275.5z" stroke="#d3b714"></path><path d="M1034.71 136.63L1084.33 136.63L1084.33 186.25L1034.71 186.25z" fill="#037b0b"></path><path d="M1249.43 281.42 a14.85 14.85 0 1 0 29.7 0 a14.85 14.85 0 1 0 -29.7 0z" fill="#e73635"></path><path d="M834 411.4L883.75 411.4L883.75 456.32L834 456.32z" fill="#e73635"></path><path d="M670.92 206.11a47.94 47.94 0 1 0-81.93-49.8z" stroke="#e73635"></path><path d="M998.65 454.86L1006.3 454.86L1006.3 496.48L998.65 496.48z" fill="#037b0b"></path><path d="M66.98 410.66L75.01 410.66L75.01 418.69L66.98 418.69z" fill="#037b0b"></path><path d="M-6.1 58.92a14.58 14.58 0 1 0 28.88-4.06z" stroke="#037b0b"></path><path d="M1145.73 20.41 a36.36 36.36 0 1 0 72.72 0 a36.36 36.36 0 1 0 -72.72 0z" stroke="#d3b714"></path><path d="M976.02 150.64L1015.58 150.64L1015.58 190.2L976.02 190.2z" fill="#d3b714"></path><path d="M594.25 376.27 a17.42 17.42 0 1 0 34.84 0 a17.42 17.42 0 1 0 -34.84 0z" fill="#037b0b"></path><path d="M623.1 329.66L646.17 329.66L646.17 352.73L623.1 352.73z" stroke="#d3b714"></path><path d="M193.61 230.03 a12.28 12.28 0 1 0 24.56 0 a12.28 12.28 0 1 0 -24.56 0z" fill="#d3b714"></path></g><defs><mask id="SvgjsMask1000"><rect width="1440" height="560" fill="#ffffff"></rect></mask></defs></svg>